<svg width="1693" height="1080" viewBox="0 0 1693 1080" fill="none" xmlns="http://www.w3.org/2000/svg">
<path d="M1688.53 540.357C1680.45 542.154 1674.11 548.501 1672.31 556.575C1670.51 548.501 1664.17 542.154 1656.09 540.357C1664.17 538.561 1670.51 532.214 1672.31 524.14C1674.11 532.214 1680.45 538.561 1688.53 540.357Z" stroke="#4C29FF"/>
<path d="M1675.89 686.487C1667.63 686.866 1660.29 692.024 1657.12 699.668C1656.75 691.405 1651.59 684.06 1643.94 680.899C1652.21 680.52 1659.55 675.362 1662.71 667.718C1663.09 675.981 1668.25 683.327 1675.89 686.487Z" stroke="#4C29FF"/>
<path d="M1638.22 827.735C1630.02 826.673 1621.89 830.478 1617.45 837.456C1618.51 829.253 1614.71 821.123 1607.73 816.683C1615.93 817.745 1624.06 813.941 1628.5 806.962C1627.44 815.165 1631.24 823.295 1638.22 827.735Z" stroke="#4C29FF"/>
<path d="M1576.24 960.797C1568.34 958.325 1559.68 960.657 1554.09 966.757C1556.56 958.864 1554.23 950.196 1548.13 944.61C1556.02 947.083 1564.69 944.75 1570.28 938.651C1567.8 946.544 1570.14 955.211 1576.24 960.797Z" stroke="#4C29FF"/>
<path d="M1491.6 1081.62C1484.26 1077.81 1475.32 1078.59 1468.75 1083.62C1472.57 1076.28 1471.78 1067.34 1466.75 1060.77C1474.09 1064.58 1483.03 1063.8 1489.6 1058.77C1485.79 1066.11 1486.57 1075.05 1491.6 1081.62Z" stroke="#4C29FF"/>
<path d="M199.678 1080.01C204.708 1073.45 205.49 1064.5 201.676 1057.16C208.242 1062.19 217.184 1062.98 224.524 1059.16C219.494 1065.73 218.712 1074.67 222.525 1082.01C215.959 1076.98 207.018 1076.2 199.678 1080.01Z" stroke="#4C29FF"/>
<path d="M115.573 959.387C121.673 953.801 124.006 945.133 121.533 937.24C127.119 943.34 135.787 945.672 143.68 943.2C137.58 948.786 135.248 957.453 137.72 965.346C132.134 959.247 123.466 956.914 115.573 959.387Z" stroke="#4C29FF"/>
<path d="M54.023 826.69C61.0015 822.25 64.806 814.12 63.744 805.917C68.1841 812.896 76.3138 816.7 84.5167 815.638C77.5382 820.078 73.7337 828.208 74.7957 836.411C70.3556 829.432 62.2258 825.628 54.023 826.69Z" stroke="#4C29FF"/>
<path d="M16.6328 685.934C24.2763 682.773 29.4347 675.427 29.8132 667.165C32.9741 674.808 40.3197 679.966 48.5823 680.345C40.9388 683.506 35.7804 690.851 35.4019 699.114C32.241 691.471 24.8954 686.312 16.6328 685.934Z" stroke="#4C29FF"/>
<path d="M4.11959 533.721C12.207 531.987 18.6028 525.689 20.4616 517.629C22.1958 525.717 28.4935 532.113 36.5532 533.972C28.4658 535.706 22.0701 542.003 20.2112 550.063C18.477 541.976 12.1793 535.58 4.11959 533.721Z" stroke="#4C29FF"/>
<path d="M17.8418 388.002C26.1071 387.687 33.4919 382.585 36.7112 374.966C37.0265 383.231 42.1285 390.616 49.7476 393.835C41.4823 394.15 34.0974 399.252 30.8781 406.872C30.5629 398.606 25.4609 391.221 17.8418 388.002Z" stroke="#4C29FF"/>
<path d="M56.2386 247.962C64.4332 249.085 72.5913 245.342 77.0837 238.397C75.9601 246.592 79.7034 254.75 86.6484 259.242C78.4537 258.119 70.2956 261.862 65.8032 268.807C66.9268 260.612 63.1835 252.454 56.2386 247.962Z" stroke="#4C29FF"/>
<path d="M118.561 116.164C126.435 118.695 135.12 116.427 140.751 110.368C138.22 118.243 140.488 126.927 146.547 132.559C138.672 130.028 129.988 132.296 124.357 138.355C126.887 130.48 124.619 121.796 118.561 116.164Z" stroke="#4C29FF"/>
<path d="M204.464 -4.97999C211.776 -1.11303 220.723 -1.83005 227.326 -6.81209C223.459 0.499598 224.176 9.4468 229.158 16.0493C221.846 12.1824 212.899 12.8994 206.297 17.8814C210.164 10.5697 209.447 1.62254 204.464 -4.97999Z" stroke="#4C29FF"/>
<path d="M1497.55 6.25464C1492.44 12.7654 1491.56 21.6981 1495.3 29.0789C1488.79 23.9776 1479.85 23.0979 1472.47 26.8311C1477.57 20.3204 1478.45 11.3877 1474.72 4.00684C1481.23 9.1082 1490.16 9.98791 1497.55 6.25464Z" stroke="#4C29FF"/>
<path d="M1579.22 125.121C1573.08 130.662 1570.68 139.312 1573.1 147.223C1567.56 141.082 1558.91 138.686 1550.99 141.1C1557.14 135.559 1559.53 126.909 1557.12 118.998C1562.66 125.139 1571.31 127.535 1579.22 125.121Z" stroke="#4C29FF"/>
<path d="M1640.21 258.507C1633.2 262.894 1629.33 270.995 1630.33 279.206C1625.94 272.194 1617.84 268.329 1609.63 269.329C1616.64 264.941 1620.51 256.841 1619.51 248.63C1623.9 255.642 1632 259.507 1640.21 258.507Z" stroke="#4C29FF"/>
<path d="M1677.5 403.74C1669.82 406.813 1664.58 414.099 1664.11 422.356C1661.03 414.677 1653.75 409.435 1645.49 408.961C1653.17 405.888 1658.41 398.603 1658.89 390.345C1661.96 398.024 1669.24 403.266 1677.5 403.74Z" stroke="#4C29FF"/>
</svg>
