<svg width="424" height="424" viewBox="0 0 424 424" fill="none" xmlns="http://www.w3.org/2000/svg">
<path d="M212 0L213.995 59.3351C216.753 141.378 282.622 207.247 364.665 210.005L424 212L364.665 213.995C282.622 216.753 216.753 282.622 213.995 364.665L212 424L210.005 364.665C207.247 282.622 141.378 216.753 59.3351 213.995L0 212L59.3351 210.005C141.378 207.247 207.247 141.378 210.005 59.3351L212 0Z" fill="#4C29FF"/>
<path d="M212 0L213.995 59.3351C216.753 141.378 282.622 207.247 364.665 210.005L424 212L364.665 213.995C282.622 216.753 216.753 282.622 213.995 364.665L212 424L210.005 364.665C207.247 282.622 141.378 216.753 59.3351 213.995L0 212L59.3351 210.005C141.378 207.247 207.247 141.378 210.005 59.3351L212 0Z" fill="#4C29FF"/>
</svg>
